<?xml version="1.0" encoding="utf-8"?>
<!-- Generator: Adobe Illustrator 26.0.1, SVG Export Plug-In . SVG Version: 6.00 Build 0)  -->
<svg version="1.1" id="图层_1" xmlns="http://www.w3.org/2000/svg" xmlns:xlink="http://www.w3.org/1999/xlink" x="0px" y="0px"
	 viewBox="0 0 358 116.2" style="enable-background:new 0 0 358 116.2;" xml:space="preserve">
<style type="text/css">
	.st0{fill:#F04C28;}
</style>
<g id="图层_2_00000143616818965586535130000010145786370492458651_">
	<g id="图层_1-2">
		<path class="st0" d="M187.6,114.3c-1.8-0.4-3.5-1-5-2c1.8-1.7,3.2-3.8,3.9-6.1c0-0.1,0-0.3-0.2-0.4l-0.8-0.4c0,0-0.1,0-0.1,0h-0.1
			l-0.2,0.1h-9.5c2.3-1,3.8-3.4,3.7-5.9v-0.7h3.3v3.3c0,1.5,0.3,2.3,2,2.3h1.8c0.3,0,0.7,0,1-0.1c0.2,0,0.3-0.2,0.2-0.3c0,0,0,0,0,0
			c-0.1-0.4-0.1-0.8-0.1-1.2c0-0.1,0-0.2-0.1-0.2c-0.1,0-0.1-0.1-0.2-0.1h-0.1c-0.3,0.1-0.6,0.1-0.9,0.1h-1.6c0-0.2,0-0.3,0-0.5v-5
			c0-0.2-0.1-0.3-0.3-0.3l0,0h-6.6c-0.2,0-0.3,0.1-0.3,0.3v2.4c0,1.4-0.4,3.1-3.1,4.4c-0.1,0-0.2,0.1-0.2,0.2c0,0.1,0,0.2,0.1,0.3
			c0.3,0.3,0.6,0.6,0.8,1c0,0.1,0.1,0.1,0.1,0.1c-0.1,0.1-0.1,0.1-0.1,0.2v1.3c0,0.2,0.1,0.3,0.3,0.3c0,0,0,0,0,0h0.6
			c0.8,1.8,2,3.5,3.4,4.9c-1.5,0.9-3.2,1.6-4.9,2c-0.1,0-0.2,0.1-0.2,0.2c0,0.1,0,0.2,0.1,0.3c0.3,0.3,0.5,0.7,0.6,1.1
			c0,0.1,0.2,0.2,0.3,0.2h0.1c2-0.5,3.9-1.4,5.6-2.5c1.7,1.2,3.6,2.1,5.7,2.6h0.1c0.1,0,0.2-0.1,0.3-0.2c0.2-0.4,0.5-0.8,0.8-1.2
			c0.1-0.1,0.1-0.3,0-0.4c0,0-0.1-0.1-0.1-0.1L187.6,114.3z M178,107.4h6c-0.7,1.4-1.8,2.7-3,3.7C179.7,110.1,178.7,108.8,178,107.4
			L178,107.4z"/>
		<path class="st0" d="M172.8,101.2c0.1,0.1,0.1,0.1,0.2,0.1l0,0c0.1,0,0.2,0,0.2-0.1l1-1c0.1-0.1,0.1-0.3,0-0.4
			c-1-1.2-2.1-2.2-3.3-3.2c-0.1,0-0.1-0.1-0.2-0.1c-0.1,0-0.2,0-0.2,0.1l-0.9,0.8c-0.1,0.1-0.1,0.1-0.1,0.2c0,0.1,0,0.2,0.1,0.2
			C170.8,98.9,171.8,100,172.8,101.2z"/>
		<path class="st0" d="M175.8,111.7c-0.2-0.3-0.4-0.7-0.5-1.1c0-0.1-0.1-0.2-0.2-0.2H175c-0.1,0-0.1,0-0.2,0l-2,1.4V103
			c0-0.2-0.1-0.3-0.3-0.3l0,0h-4.4c-0.2,0-0.3,0.1-0.3,0.3c0,0,0,0,0,0v1.3c0,0.2,0.1,0.3,0.3,0.3c0,0,0,0,0,0h2.8v7.5
			c0,0.7-0.4,1.3-0.9,1.7c-0.1,0.1-0.1,0.1-0.1,0.2c0,0.1,0,0.2,0.1,0.2c0.3,0.3,0.6,0.7,0.8,1.1c0,0.1,0.1,0.2,0.2,0.2l0,0
			c0.1,0,0.2,0,0.2-0.1c0.3-0.4,1-0.8,4.6-3.5C175.8,112,175.8,111.8,175.8,111.7z"/>
		<path class="st0" d="M210.1,110.4c0-0.1-0.1-0.2-0.2-0.2h-0.1c-0.1,0-0.1,0-0.2,0.1l-2.2,1.5v-8.6c0-0.2-0.1-0.3-0.3-0.3l0,0h-4.9
			c-0.2,0-0.3,0.1-0.3,0.3c0,0,0,0,0,0v1.4c0,0.2,0.1,0.3,0.3,0.3c0,0,0,0,0,0h3.1v7.5c0,0.6-0.3,1.2-0.9,1.5
			c-0.1,0-0.1,0.1-0.1,0.2c0,0.1,0,0.2,0.1,0.2c0.3,0.4,0.5,0.8,0.7,1.2c0,0.1,0.1,0.2,0.2,0.2l0,0c0.1,0,0.2,0,0.2-0.1
			c0.3-0.4,1-0.9,4.8-3.6c0.1-0.1,0.2-0.2,0.1-0.4C210.3,111.2,210.2,110.8,210.1,110.4z"/>
		<path class="st0" d="M221.5,103.2h-5.2v-6.7c0-0.2-0.1-0.3-0.3-0.3l0,0h-1.5c-0.2,0-0.3,0.1-0.3,0.3c0,0,0,0,0,0v6.7h-5.1
			c-0.2,0-0.3,0.1-0.3,0.3v1.4c0,0.2,0.1,0.3,0.3,0.3l0,0h5.1v10.6c0,0.2,0.1,0.3,0.3,0.3c0,0,0,0,0,0h1.5c0.2,0,0.3-0.1,0.3-0.3v0
			v-10.6h5.2c0.1,0,0.2,0,0.2-0.1c0.1-0.1,0.1-0.1,0.1-0.2l-0.1-1.4C221.8,103.3,221.7,103.2,221.5,103.2z"/>
		<path class="st0" d="M207.4,101.2c0.1,0.1,0.1,0.1,0.2,0.1l0,0c0.1,0,0.2,0,0.2-0.1l0.9-1c0.1-0.1,0.1-0.3,0-0.4
			c-1-1.2-2.2-2.2-3.4-3.2c-0.1,0-0.1-0.1-0.2-0.1c-0.1,0-0.2,0-0.2,0.1l-0.9,0.9c-0.1,0.1-0.1,0.1-0.1,0.2c0,0.1,0,0.2,0.1,0.2
			C205.3,98.9,206.4,100,207.4,101.2z"/>
		<path class="st0" d="M245.4,100.6l-0.9-0.2h-0.1h-0.2h-3.2c0.2-1.3,0.5-2.7,0.7-3.9c0-0.1,0-0.2-0.1-0.2c-0.1-0.1-0.1-0.1-0.2-0.1
			l-1.4-0.1c-0.2,0-0.3,0.1-0.3,0.3c-0.2,1.5-0.4,2.9-0.7,4.1h-2.7c-0.2,0-0.3,0.1-0.3,0.3v0v1.3c0,0.2,0.1,0.3,0.3,0.3l0,0h2.3
			c-0.4,1.9-0.9,3.7-1.5,5.5c0,0.1,0,0.3,0.1,0.3c0.9,0.6,2.2,1.6,3.5,2.6c-1.1,1.6-2.7,2.8-4.5,3.5c-0.1,0-0.2,0.1-0.2,0.2
			c0,0.1,0,0.2,0.1,0.3c0.3,0.4,0.6,0.8,0.8,1.2c0.1,0.1,0.2,0.2,0.3,0.2c0,0,0.1,0,0.1,0c1.9-0.9,3.6-2.2,4.9-3.9
			c0.7,0.6,1.3,1.3,1.9,2c0.1,0.1,0.1,0.1,0.2,0.1l0,0c0.1,0,0.2,0,0.2-0.1l1-1.2c0.1-0.1,0.1-0.3,0-0.4c-0.7-0.8-1.4-1.5-2.2-2.2
			c1.4-3,2.2-6.2,2.3-9.5c0-0.2,0-0.3-0.2-0.4C245.5,100.6,245.5,100.6,245.4,100.6z M243.6,102.4c-0.2,2.3-0.8,4.6-1.8,6.7
			c-0.7-0.6-1.5-1.1-2.4-1.8c0.4-1.5,0.9-3.3,1.3-5L243.6,102.4z"/>
		<path class="st0" d="M254.8,98.4h-8.2c-0.1,0-0.2,0-0.2,0.1c-0.1,0.1-0.1,0.1-0.1,0.2v16.6c0,0.2,0.1,0.3,0.3,0.3l0,0h1.4
			c0.2,0,0.3-0.1,0.3-0.3c0,0,0,0,0,0V114h4.9v1c0,0.2,0.1,0.3,0.3,0.3c0,0,0,0,0,0h1.4c0.2,0,0.3-0.1,0.3-0.3c0,0,0,0,0,0V98.7
			C255.2,98.6,255,98.4,254.8,98.4C254.9,98.4,254.9,98.4,254.8,98.4z M248.3,112v-11.7h4.9v11.7L248.3,112z"/>
		<path class="st0" d="M290,110.2c-0.4-0.1-0.9-0.3-1.3-0.6c-0.1,0-0.1,0-0.2,0c0,0-0.1,0-0.1,0c-0.1,0-0.2,0.2-0.2,0.3
			c-0.1,3.1-0.3,3.5-0.9,3.5h-3.1c-0.7,0-0.8,0-0.8-1v-6.5c2-1,4-2.2,5.8-3.5c0.1-0.1,0.1-0.3,0-0.4c0,0,0,0,0,0l-1.2-1.1
			c-0.1-0.1-0.1-0.1-0.2-0.1c-0.1,0-0.1,0-0.2,0.1c-1.3,1.1-2.8,2.1-4.3,2.9v-7.4c0-0.2-0.1-0.3-0.3-0.3c0,0,0,0,0,0h-1.5
			c-0.2,0-0.3,0.1-0.3,0.3v15.9c0,2.3,0.6,3,2.7,3h3.3c2.1,0,2.5-1.4,2.7-4.8C290.2,110.4,290.1,110.3,290,110.2z"/>
		<path class="st0" d="M280.8,112c-0.1,0-0.1-0.1-0.2-0.1l0,0l-2.8,0.5v-7.8h2.8c0.2,0,0.3-0.1,0.3-0.3V103c0-0.2-0.1-0.3-0.3-0.3
			h-2.8v-6.3c0-0.2-0.1-0.3-0.3-0.3h-1.4c-0.2,0-0.3,0.1-0.3,0.3c0,0,0,0,0,0v16.4l-2,0.3v-12.4c0-0.2-0.1-0.3-0.3-0.3c0,0,0,0,0,0
			h-1.4c-0.2,0-0.3,0.1-0.3,0.3c0,0,0,0,0,0v12.8l-1.2,0.2h-0.3c-0.2,0-0.3,0.2-0.2,0.3l0.2,1.5c0,0.1,0.1,0.2,0.1,0.2
			c0,0,0.1,0.1,0.2,0.1h0.1l3.9-0.7c2-0.4,4.1-0.8,6.2-1.2c0.1,0,0.3-0.2,0.2-0.3l-0.1-1.4C280.9,112.1,280.9,112,280.8,112z"/>
		<path class="st0" d="M305.8,104.2h1.4c0.2,0,0.3,0.1,0.3,0.3v11.3c0,0.2-0.1,0.3-0.3,0.3h-1.4c-0.2,0-0.3-0.1-0.3-0.3v-11.3
			C305.5,104.4,305.7,104.2,305.8,104.2z"/>
		<path class="st0" d="M310.5,104.3c0-0.1,0-0.2,0-0.2c-0.7-1-1.4-1.9-2.3-2.7c-0.1-0.1-0.1-0.1-0.2-0.1c-0.1,0-0.1,0-0.2,0
			l-1.1,0.7c-0.1,0-0.1,0.1-0.1,0.2c0,0.1,0,0.2,0.1,0.2c0.8,0.8,1.5,1.7,2.1,2.7c0,0.1,0.1,0.1,0.2,0.1h0.1c0.1,0,0.1,0,0.2,0
			l1.1-0.7C310.5,104.5,310.5,104.4,310.5,104.3z"/>
		<path class="st0" d="M318.4,112.9v-7.2c0-0.2-0.1-0.3-0.3-0.3c0,0,0,0,0,0H310c-0.2,0-0.3,0.1-0.3,0.3c0,0,0,0,0,0v8.3
			c0,0.2,0.1,0.3,0.3,0.3h1.3c0.2,0,0.3-0.1,0.3-0.3v-0.8h6.5C318.2,113.2,318.4,113.1,318.4,112.9
			C318.4,112.9,318.4,112.9,318.4,112.9z M316.5,110.1v1.4h-4.8v-1.4H316.5z M316.5,107.1v1.3h-4.8v-1.3H316.5z"/>
		<path class="st0" d="M323.1,97.9h-5.7c0.1-0.4,0.3-0.8,0.4-1.2c0-0.1,0-0.2,0-0.2c0-0.1-0.1-0.1-0.2-0.1l-1.3-0.3h-0.1
			c-0.1,0-0.2,0.1-0.3,0.2c-0.5,1.7-1.4,3.2-2.6,4.4c-0.1,0.1-0.1,0.2-0.1,0.2c0,0.1,0.1,0.2,0.1,0.2c0.4,0.2,0.7,0.5,1.1,0.8
			c0.1,0,0.1,0.1,0.2,0.1c0.1,0,0.2,0,0.2-0.1c0.6-0.7,1.2-1.4,1.6-2.2h1.4c0.5,0.7,0.9,1.5,1.3,2.3l0,0h-8.2l1-0.4
			c0.2-0.1,0.2-0.2,0.2-0.4c0,0,0,0,0,0c-0.2-0.5-0.4-1-0.7-1.6h2.5c0.2,0,0.3-0.1,0.3-0.3v-1.2c0-0.2-0.1-0.3-0.3-0.3h-4.7
			c0.2-0.4,0.3-0.8,0.5-1.1c0-0.1,0-0.2,0-0.2c0-0.1-0.1-0.1-0.2-0.2L308,96l0,0c-0.1,0-0.2,0.1-0.3,0.2c-0.6,1.9-1.7,3.5-3.2,4.8
			c-0.1,0.1-0.1,0.2-0.1,0.3c0,0.1,0.1,0.2,0.2,0.2c0.4,0.2,0.8,0.5,1.1,0.8c0.1,0,0.1,0.1,0.2,0.1c0.1,0,0.2,0,0.2-0.1
			c0.8-0.8,1.5-1.6,2.1-2.6h1.1c0.4,0.7,0.7,1.5,1,2.2c0,0.1,0.1,0.1,0.2,0.2c0,0,0.1,0,0.1,0h0.1h0.1c-0.1,0.1-0.1,0.1-0.1,0.2v1.3
			c0,0.2,0.1,0.3,0.3,0.3c0,0,0,0,0,0h9.8V114c0,0,0,0.1,0,0.1c0,0-0.1,0-0.2,0h-3.4c-0.2,0-0.3,0.2-0.3,0.3c0,0,0,0.1,0,0.1
			c0.2,0.4,0.4,0.8,0.5,1.2c0,0.1,0.1,0.2,0.3,0.2c0.4,0,0.7,0,1.1,0c1,0,1.9-0.1,2.8-0.2c0.8-0.2,1.2-1,1.1-1.8v-11.7
			c0-0.2-0.1-0.3-0.3-0.3h-2.6l0.9-0.4c0.1,0,0.1-0.1,0.2-0.2c0-0.1,0-0.2,0-0.2c-0.2-0.5-0.5-1-0.8-1.5h3c0.2,0,0.3-0.1,0.3-0.3
			v-1.1C323.4,98.1,323.2,97.9,323.1,97.9z"/>
		<path class="st0" d="M357.9,110.4c-0.1-0.1-0.1-0.1-0.2-0.1h-8.5v-1.5h6.6c0.2,0,0.3-0.1,0.3-0.3c0,0,0,0,0,0v-8.4
			c0-0.2-0.1-0.3-0.3-0.3c0,0,0,0,0,0h-3.1c0.5-0.7,1.1-1.6,1.7-2.6c0-0.1,0-0.2,0-0.3c0-0.1-0.1-0.1-0.2-0.2l-1.5-0.5h-0.1
			c-0.1,0-0.2,0.1-0.3,0.2c-0.6,1.2-1.3,2.3-2.1,3.4h-4v-0.1c0-0.1,0-0.2,0-0.2c-0.6-1.2-1.4-2.2-2.4-3.2c-0.1-0.1-0.1-0.1-0.2-0.1
			c0,0-0.1,0-0.1,0l-1.1,0.6c-0.1,0-0.1,0.1-0.2,0.2c0,0.1,0,0.2,0.1,0.2c0.7,0.8,1.3,1.6,1.8,2.5h-3.5c-0.2,0-0.3,0.1-0.3,0.3
			c0,0,0,0,0,0v8.4c0,0.2,0.1,0.3,0.3,0.3c0,0,0,0,0,0h6.3v1.5h-8.4c-0.2,0-0.3,0.1-0.3,0.3v1.4c0,0.2,0.1,0.3,0.3,0.3h8.4v3.6
			c0,0.2,0.1,0.3,0.3,0.3h1.4c0.2,0,0.3-0.1,0.3-0.3v-3.6h8.5c0.2,0,0.3-0.1,0.3-0.3v-1.3C358,110.6,357.9,110.5,357.9,110.4z
			 M347.1,105.2v1.8h-4.7v-1.8L347.1,105.2z M342.4,103.4v-1.8h4.7v1.8H342.4z M349.2,103.4v-1.8h4.9v1.8H349.2z M349.2,107v-1.8
			h4.9v1.8L349.2,107z"/>
		<rect x="122.3" y="109.6" class="st0" width="29.8" height="1.4"/>
		<path class="st0" d="M340.6,21.9h-14.2l1.1-3c0.5-1.5-0.2-3.1-1.7-3.6c-0.3-0.1-0.7-0.2-1-0.2h-5.8c-1.2,0-2.2,0.8-2.6,1.9
			l-1.8,4.9h-19.2c-1.3,0-2.5,0.9-2.8,2.2l-1.3,5.6c-0.3,1.5,0.6,3,2.1,3.4c0,0,0,0,0,0c0.2,0,0.4,0.1,0.6,0.1h16.4L290,85.1
			c-0.5,1.5,0.2,3.1,1.7,3.6c0,0,0,0,0,0c0.3,0.1,0.7,0.2,1,0.2h5.8c1.2,0,2.2-0.7,2.6-1.8l21.1-53.8h13.8c2.5,0,4.5,2,4.5,4.5
			c0,0,0,0,0,0l0,0V86c0,1.6,1.3,2.8,2.8,2.8l0,0h5.6c1.6,0,2.8-1.3,2.8-2.8c0,0,0,0,0,0l0,0V33.2l0,0
			C351.9,27,346.9,21.9,340.6,21.9C340.7,21.9,340.7,21.9,340.6,21.9L340.6,21.9z M267.9,21.9c-0.4,0-0.8,0-1.1,0.1v-0.1h-6.1
			l0.5-3.5c0.2-1.6-0.9-3-2.4-3.2h-0.4h-5.6c-1.4,0-2.6,1-2.8,2.4l-0.6,4.3h-2.5c-1.3,0-2.4,0.9-2.7,2.1l-1.4,5.6
			c-0.4,1.5,0.5,3.1,2,3.4c0.2,0.1,0.5,0.1,0.7,0.1h2.3l-8.3,52.4c-0.2,1.5,0.9,3,2.4,3.2c0,0,0,0,0,0c0.1,0,0.3,0,0.4,0h5.6
			c1.4,0,2.6-1,2.8-2.4l8.4-53.2h4.3c2.5,0,4.5,2,4.5,4.5l0,0V86c0,1.6,1.3,2.8,2.8,2.8h5.6c1.6,0,2.8-1.3,2.8-2.8c0,0,0,0,0,0l0,0
			V33.2C279.2,27,274.1,21.9,267.9,21.9C267.9,21.9,267.9,21.9,267.9,21.9L267.9,21.9z M236.6,21.9h-31.4c-1.3,0-2.4,0.9-2.8,2.1
			l-1.4,5.6c-0.4,1.5,0.6,3,2.1,3.4c0.2,0.1,0.5,0.1,0.7,0.1h31.4c1.3,0,2.4-0.9,2.7-2.1l1.4-5.6c0.4-1.5-0.5-3-2-3.4c0,0,0,0,0,0
			C237.1,21.9,236.8,21.9,236.6,21.9L236.6,21.9z M190.8,21.9h-57.5c-1.3,0-2.4,0.9-2.8,2.1l-1.4,5.6c-0.4,1.5,0.5,3.1,2.1,3.4
			c0.2,0.1,0.4,0.1,0.7,0.1h19.6L130.7,85c-0.5,1.5,0.2,3.1,1.7,3.6c0,0,0,0,0,0c0.3,0.1,0.7,0.2,1,0.2h5.8c1.2,0,2.2-0.7,2.7-1.8
			l14-34.1h16.6c2.5,0,4.5,2,4.5,4.5c0,0,0,0,0,0l0,0V86c0,1.6,1.3,2.8,2.8,2.8h5.6c1.5,0,2.8-1.3,2.8-2.8V52.8
			c0-6.2-5-11.3-11.3-11.3c0,0,0,0,0,0l0,0c-0.4,0-0.8,0-1.1,0v0h-15.6l3.2-8.4h26c1.3,0,2.5-0.9,2.8-2.2l1.4-5.6
			c0.4-1.5-0.5-3-2-3.5C191.3,21.9,191,21.9,190.8,21.9L190.8,21.9z M233.8,70.3h-6.5c-0.6,0-1.1,0.2-1.5,0.6
			c-0.3,0.5-0.5,1.1-0.4,1.7l0.4,4.9h-8.6c-3.1,0-5.6-2.5-5.6-5.6c0,0,0,0,0,0V58.4c0-3.1,2.5-5.6,5.6-5.6h15.3
			c1.3,0,2.4-0.9,2.7-2.1l1.4-5.6c0.4-1.5-0.5-3-2.1-3.4c-0.2-0.1-0.5-0.1-0.7-0.1h-19.5c-7.4,0-13.5,5.7-14.1,13l0,0v20.2
			c0,7.8,6.3,14.1,14.1,14.1c0,0,0,0,0,0h13.6c0.2,0,0.4,0.1,0.6,0.1h6.5c0.6,0,1.1-0.2,1.5-0.6c0.4-0.5,0.5-1.2,0.4-1.8l-1.1-14
			C235.7,71,235,70.3,233.8,70.3L233.8,70.3z"/>
		<path class="st0" d="M121.7,49.1c-1.2,0.4-2.3,1.1-3.1,2c-2.2,2-4.3,4.1-6.6,6.1c-3,2.6-6.2,4.9-10.3,5.5
			c-2.2,0.3-4.1,1.6-5.2,3.5c-2.8,4.5-6,8.7-9.5,12.7c-1.4,1.7-3,3.2-4.9,4.2c-0.9,0.5-1.7,0.3-1.9-0.8c0.1-0.7,0.2-1.4,0.3-2.4
			c-0.6,0.8-1,1.8-1.2,2.8c-0.7,1.9-1.2,3.9-1.6,5.9c-0.4,1.9-0.1,3.8,1,5.4c-0.1-0.1-0.5-0.2-0.7-0.2c-0.2-0.1-0.4-0.3-0.6-0.5
			c-0.4-0.4-0.6-0.9-0.7-1.4c-0.3-1.4-0.2-2.8,0.1-4.2c1.1-5.3,2.6-10.5,4.6-15.5c1.2-2.9,1.8-6,1.9-9.2c0-1.8-0.5-3.5-1.6-4.9
			c-1.2-1.3-2.9-2-4.6-1.9c-2.9,0.2-5.7,1-8.2,2.5c-2.4,1.3-4.7,2.8-6.9,4.5c-1.3,1.1-2.7,2.2-4.2,3.1c-1,0.7-2.3,0.6-3.1-0.2
			c-1-0.9-2.4-1-3.5-0.1c-1.2,0.8-2.2,1.9-2.8,3.1c-2.3,3.8-4.8,7.5-7.6,11c-2.5,3.5-5.6,6.6-9.1,9.1c-1.6,1.1-3.4,2-5.4,0.9
			l-0.8-2.4c0.1-0.3,0.1-0.6-0.1-0.9c-0.3,0.3-0.6,0.6-0.8,1c-0.3,1.4-0.8,2.7-1,4c-0.5,2.3-0.3,4.7,0.4,6.9c0.7,1.6,1.8,3,3.3,3.9
			c-0.4-0.1-0.7-0.2-1.1-0.2c-0.4-0.1-0.8-0.3-1.1-0.5c-2-1.2-3.1-3.6-3.5-5.8c-0.5-2.8,0.1-5.7,0.8-8.4v-0.1
			c1.3-5.8,3.4-11.4,6.3-16.5c0.7-1.3,1.5-2.6,2.3-3.8c0.3-0.5,0.8-1,1.4-1c1.4,0.1,0.7,2.8,1.9,3.5c0.6,0.3,1.3,0.1,1.7-0.4
			c0.4-0.5,0.6-1.1,0.8-1.7C38.9,58.8,42.4,50.6,47,43c0.2-0.4,0.5-0.8,0.2-1.2c-0.2-0.2-0.4-0.4-0.7-0.5c-3.9-1.6-7.4-4.2-10.1-7.5
			c-0.3-0.4-0.7-0.8-1.2-0.8c-0.3,0.1-0.5,0.2-0.7,0.4c-8.2,7-15.3,15.1-21.1,24.2c-0.9,1.5-1.8,3.4-0.8,4.8
			c0.8,1.1,2.4,1.4,3.1,2.5c0.7,1.1,0.1,2.8-0.6,4.1c-2.9,5.5-5.9,11.1-7.6,17.1s-1.7,12.7,1,18.3c1.3,3,3.7,5.4,6.7,6.7
			c2.9,1.1,6,0.7,8.9-0.2c2.9-0.9,5.7-2.1,8.3-3.6c4.7-2.8,9.1-5.9,13.3-9.4c1.4-1,2.8-2.2,4-3.5c1-0.9,1.2-2.3,0.6-3.4
			c-1.2-2.5-1-3.8,0.8-5.9c5.1-5.7,10.2-11.4,16.5-15.9c1.6-1.3,3.5-2.1,5.5-2.5c1.4-0.2,2,0.2,2.4,1.4c-2.1-1.1-3.9-0.2-5.5,0.8
			c-2.7,1.7-4.7,4.2-6.8,6.6c-0.3,0.4-1.1,0.9-0.8,1.3s1.1-0.1,1.6-0.3c1.6-0.6,2.6,0,3,1.6c0.2,1,0.1,1.9-0.2,2.9
			c-0.6,2.3-1.3,4.7-1.7,7.1c-0.6,3.6-1,7.1,0.2,10.7c0.7,2.8,3.3,4.6,6.2,4.5c2.2,0,4.4-0.5,6.4-1.4c8.4-3.7,15.2-9.6,21.8-15.8
			c1.4-1.3,1.2-2.3-0.3-3.5s-1.7-2.2-0.6-3.8c0.3-0.3,0.6-0.7,0.9-1c7.4-8.1,14.9-16.2,22.1-24.4c0.6-0.6,1.2-1.3,1.6-2.1
			c0.3-0.5,0.3-1.2,0-1.7C123,49,122.3,48.8,121.7,49.1z M24.9,89.4v-0.2l0,0V89.4z M24.8,89.2L24.8,89.2h-0.3H24.8z M69.2,96.7
			c-0.1,0.2-0.1,0.4-0.1,0.6C69,97.1,69.1,96.9,69.2,96.7z M69.2,96.6l-0.1,0.1L69.2,96.6z M104.4,68.5l-0.3-0.1L104.4,68.5z
			 M103.9,68.4c0,0,0,0.1,0,0.1C103.9,68.5,103.9,68.4,103.9,68.4z M103.9,68.4L103.9,68.4L103.9,68.4L103.9,68.4z M95.3,73.4h0.1
			H95.3c-0.3,0-0.4,0.2-0.3,0.4C94.9,73.6,95.1,73.4,95.3,73.4L95.3,73.4z M91.1,78.1c0.2-0.3,0.4-0.6,0.7-0.8
			C91.5,77.5,91.3,77.7,91.1,78.1c-0.1,0.2-0.1,0.3-0.1,0.5C91,78.4,91.1,78.2,91.1,78.1L91.1,78.1z M91.1,79.2c0,0,0-0.1,0-0.1
			S91.2,79.1,91.1,79.2L91.1,79.2z M91.1,79c0-0.1,0-0.2-0.1-0.3C91,78.7,91.1,78.8,91.1,79L91.1,79z M91.5,79.8L91.5,79.8
			c-0.3-0.2-0.7-0.3-1.1-0.2C90.8,79.5,91.2,79.6,91.5,79.8L91.5,79.8z M104.8,68.7c0.1,0,0.2,0,0.3,0
			C105,68.7,104.9,68.6,104.8,68.7L104.8,68.7z"/>
		<path class="st0" d="M9.6,69.4c0-0.5,0.1-1.1-0.4-1.4s-1.1-0.1-1.6,0.2c-0.3,0.2-0.6,0.4-0.9,0.6c-2,1.6-3.8,3.6-5.1,5.8
			C0.6,76,0.1,77.6,0,79.3c-0.1,0.8,0.3,1.7,0.9,2.2c0.9,0.4,1.9,0.2,2.6-0.4c0.7-0.5,1.4-1.1,1.9-1.8c1.2-1.6,2.2-3.4,2.9-5.3
			C9,72.5,9.4,71,9.6,69.4z"/>
		<path class="st0" d="M47.5,39.7c0.3,0.1,0.6,0.3,0.9,0c1-1,1.7-2.2,2.1-3.5c0.1-0.5-0.3-0.6-0.6-0.7c-3.4-1.7-6.4-4-8.8-7
			c-0.4-0.5-0.6-0.5-1-0.1c-0.8,0.8-1.6,1.7-2.4,2.6c-0.4,0.3-0.4,0.9,0,1.2c0,0,0,0,0,0C40.4,35.5,43.7,38,47.5,39.7z"/>
		<path class="st0" d="M116.3,69.3c-0.4,0.1-0.7,0.2-1,0.3c-3.6,2-6.4,4.8-9.4,7.6c-0.6,0.6-0.7,1.4-0.3,2.1c0.4,0.8,1.2,1.2,2,1.1
			c0.4,0,0.8-0.2,1.1-0.5c2.7-2.4,5.2-5.1,7.4-7.9c0.5-0.5,0.8-1.1,1-1.8C117.4,69.5,117.1,69.2,116.3,69.3z"/>
		<path class="st0" d="M58,84.2c-1.5,0.7-2.5,2.2-2.6,3.9c-0.1,1.5,0.8,2.1,2.2,1.5c1.5-0.7,2.5-2.1,2.7-3.7
			C60.3,84.1,59.3,83.5,58,84.2z"/>
		<path class="st0" d="M32.5,75c-0.6-0.3-1.1,0.2-1.5,0.5c-1,1-1.7,2.3-1.8,3.7c-0.2,0.6,0,1.2,0.5,1.5c0.6,0.4,1.1-0.1,1.5-0.5
			c1.1-1,1.7-2.4,1.8-3.8C33.1,75.9,33.2,75.3,32.5,75z"/>
		<path class="st0" d="M41.1,24.7c0,1,0.8,1.9,1.8,2c3.6,0.7,6.6,2.9,8.4,6.1c0.4,1,1.5,1.5,2.6,1.2c8-1.4,13-6.2,15.3-13.9
			c0.7-2.2,1.2-4.5,2-6.7s2.1-3,4.6-3c1.8,0,3.4,0.8,5.4,1.3c-0.5-0.9-0.9-1.7-1.2-2.7c-2.5-4.4-7.2-7.1-12-8.3
			C62-0.8,55.8,0.2,50.7,3.5c-6.5,4.2-10.8,12.3-9.8,20.1C40.9,24,41,24.4,41.1,24.7z"/>
	</g>
</g>
</svg>
